<svg width="34" height="33" viewBox="0 0 34 33" fill="none" xmlns="http://www.w3.org/2000/svg">
<rect x="0.800049" width="33" height="33" rx="16.5" fill="#374957" fill-opacity="0.1"/>
<g clip-path="url(#clip0_7_221)">
<path d="M17 15.9999C18.1867 15.9999 19.3467 15.648 20.3334 14.9888C21.3201 14.3295 22.0892 13.3924 22.5433 12.296C22.9974 11.1997 23.1162 9.99329 22.8847 8.8294C22.6532 7.66551 22.0818 6.59642 21.2426 5.7573C20.4035 4.91819 19.3344 4.34674 18.1705 4.11523C17.0067 3.88372 15.8003 4.00254 14.7039 4.45666C13.6075 4.91079 12.6705 5.67983 12.0112 6.66652C11.3519 7.65322 11 8.81325 11 9.99994C11.0016 11.5908 11.6342 13.116 12.7591 14.2408C13.884 15.3657 15.4092 15.9984 17 15.9999ZM17 5.99994C17.7911 5.99994 18.5645 6.23454 19.2223 6.67406C19.8801 7.11359 20.3928 7.7383 20.6955 8.46921C20.9983 9.20011 21.0775 10.0044 20.9231 10.7803C20.7688 11.5562 20.3878 12.269 19.8284 12.8284C19.269 13.3878 18.5563 13.7687 17.7804 13.9231C17.0044 14.0774 16.2002 13.9982 15.4693 13.6955C14.7384 13.3927 14.1136 12.88 13.6741 12.2222C13.2346 11.5644 13 10.7911 13 9.99994C13 8.93908 13.4214 7.92166 14.1716 7.17151C14.9217 6.42137 15.9391 5.99994 17 5.99994V5.99994Z" fill="#374957"/>
<path d="M17 18.0006C14.6139 18.0033 12.3262 18.9523 10.639 20.6396C8.95171 22.3268 8.00265 24.6145 8 27.0006C8 27.2658 8.10536 27.5202 8.29289 27.7077C8.48043 27.8953 8.73478 28.0006 9 28.0006C9.26522 28.0006 9.51957 27.8953 9.70711 27.7077C9.89464 27.5202 10 27.2658 10 27.0006C10 25.1441 10.7375 23.3636 12.0503 22.0509C13.363 20.7381 15.1435 20.0006 17 20.0006C18.8565 20.0006 20.637 20.7381 21.9497 22.0509C23.2625 23.3636 24 25.1441 24 27.0006C24 27.2658 24.1054 27.5202 24.2929 27.7077C24.4804 27.8953 24.7348 28.0006 25 28.0006C25.2652 28.0006 25.5196 27.8953 25.7071 27.7077C25.8946 27.5202 26 27.2658 26 27.0006C25.9974 24.6145 25.0483 22.3268 23.361 20.6396C21.6738 18.9523 19.3861 18.0033 17 18.0006V18.0006Z" fill="#374957"/>
</g>
<defs>
<clipPath id="clip0_7_221">
<rect width="24" height="24" fill="white" transform="translate(5 4)"/>
</clipPath>
</defs>
</svg>
