<svg width="50" height="50" viewBox="0 0 50 50" fill="none" xmlns="http://www.w3.org/2000/svg">
<circle cx="25" cy="25" r="25" fill="#4D44B5"/>
<g clip-path="url(#clip0_187_5638)">
<path d="M41.6248 22.1258H38.8748V19.3758C38.8748 19.0112 38.7299 18.6614 38.4721 18.4036C38.2142 18.1457 37.8645 18.0008 37.4998 18.0008C37.1351 18.0008 36.7854 18.1457 36.5275 18.4036C36.2697 18.6614 36.1248 19.0112 36.1248 19.3758V22.1258H33.3748C33.0101 22.1258 32.6604 22.2707 32.4025 22.5286C32.1447 22.7864 31.9998 23.1362 31.9998 23.5008C31.9998 23.8655 32.1447 24.2152 32.4025 24.4731C32.6604 24.731 33.0101 24.8758 33.3748 24.8758H36.1248V27.6258C36.1248 27.9905 36.2697 28.3402 36.5275 28.5981C36.7854 28.856 37.1351 29.0008 37.4998 29.0008C37.8645 29.0008 38.2142 28.856 38.4721 28.5981C38.7299 28.3402 38.8748 27.9905 38.8748 27.6258V24.8758H41.6248C41.9895 24.8758 42.3392 24.731 42.5971 24.4731C42.8549 24.2152 42.9998 23.8655 42.9998 23.5008C42.9998 23.1362 42.8549 22.7864 42.5971 22.5286C42.3392 22.2707 41.9895 22.1258 41.6248 22.1258Z" fill="white"/>
<path d="M22.375 23.4999C24.0067 23.4999 25.6018 23.0161 26.9585 22.1095C28.3152 21.203 29.3726 19.9145 29.997 18.4071C30.6214 16.8996 30.7848 15.2408 30.4665 13.6404C30.1482 12.0401 29.3624 10.5701 28.2086 9.41628C27.0548 8.2625 25.5848 7.47676 23.9845 7.15843C22.3842 6.84011 20.7254 7.00348 19.2179 7.62791C17.7104 8.25233 16.4219 9.30975 15.5154 10.6665C14.6089 12.0232 14.125 13.6182 14.125 15.2499C14.1272 17.4373 14.9971 19.5344 16.5438 21.0811C18.0905 22.6278 20.1876 23.4977 22.375 23.4999ZM22.375 9.74991C23.4628 9.74991 24.5262 10.0725 25.4306 10.6768C26.3351 11.2812 27.0401 12.1402 27.4563 13.1452C27.8726 14.1501 27.9815 15.256 27.7693 16.3229C27.5571 17.3898 27.0333 18.3698 26.2641 19.139C25.4949 19.9082 24.5149 20.432 23.448 20.6442C22.3811 20.8565 21.2752 20.7475 20.2702 20.3313C19.2652 19.915 18.4063 19.21 17.8019 18.3055C17.1976 17.4011 16.875 16.3377 16.875 15.2499C16.875 13.7912 17.4545 12.3923 18.4859 11.3608C19.5174 10.3294 20.9163 9.74991 22.375 9.74991V9.74991Z" fill="white"/>
<path d="M22.375 26.2508C19.0941 26.2545 15.9485 27.5594 13.6286 29.8794C11.3086 32.1994 10.0036 35.3449 10 38.6258C10 38.9905 10.1449 39.3402 10.4027 39.5981C10.6606 39.856 11.0103 40.0008 11.375 40.0008C11.7397 40.0008 12.0894 39.856 12.3473 39.5981C12.6051 39.3402 12.75 38.9905 12.75 38.6258C12.75 36.0731 13.7641 33.625 15.5691 31.8199C17.3741 30.0149 19.8223 29.0008 22.375 29.0008C24.9277 29.0008 27.3759 30.0149 29.1809 31.8199C30.9859 33.625 32 36.0731 32 38.6258C32 38.9905 32.1449 39.3402 32.4027 39.5981C32.6606 39.856 33.0103 40.0008 33.375 40.0008C33.7397 40.0008 34.0894 39.856 34.3473 39.5981C34.6051 39.3402 34.75 38.9905 34.75 38.6258C34.7464 35.3449 33.4414 32.1994 31.1214 29.8794C28.8015 27.5594 25.6559 26.2545 22.375 26.2508V26.2508Z" fill="white"/>
</g>
<defs>
<clipPath id="clip0_187_5638">
<rect width="33" height="33" fill="white" transform="translate(10 7)"/>
</clipPath>
</defs>
</svg>
